<svg width="80" height="80" xmlns="http://www.w3.org/2000/svg">

 <g>
  <path fill="#fbb168" d="m37.35215,21.25181l-1.71939,13.98402l4.32907,4.54449l0,-39.74222l-1.68838,13.73204c-12.2392,1.01828 -21.98477,11.32664 -22.82737,24.20574l7.10171,-0.96184c1.1391,-8.06355 7.15815,-14.44904 14.80437,-15.76223zm5.21142,37.18659l1.73687,-14.10723l-4.32668,-4.54131l37.87021,0l-12.75032,-1.72813c-0.81955,-13.13426 -10.89342,-23.61751 -23.4474,-24.33929l0.91414,7.43318c7.96816,1.06756 14.29881,7.62714 15.43473,15.94585l-13.69547,-1.85532l-4.32748,4.5429l-0.00318,-0.00238l0.00079,-0.00079l-37.8726,0l13.34651,1.80842c0.83465,12.89182 10.59056,23.21688 22.8393,24.2288l-0.91971,-7.4777c-7.65894,-1.30921 -13.68355,-7.71379 -14.81709,-15.79085l13.09293,1.77662l4.32907,-4.54528l0,39.74302l1.68203,-13.66288c12.55398,-0.72337 22.62785,-11.20979 23.44343,-24.34883l-7.09853,0.96184c-1.13433,8.32428 -7.4626,14.88624 -15.43155,15.95937z"/>
 </g>
</svg>
