<svg width="400" height="80" xmlns="http://www.w3.org/2000/svg">
 <g>
  <path stroke-width="1" fill="#fbb168" d="m35.61303,21.25181l-1.71939,13.98402l4.32907,4.54449l0,-39.74222l-1.68838,13.73204c-12.2392,1.01828 -21.98477,11.32664 -22.82737,24.20574l7.10171,-0.96184c1.1391,-8.06355 7.15815,-14.44904 14.80437,-15.76223zm5.21142,37.18659l1.73687,-14.10723l-4.32668,-4.54131l37.87021,0l-12.75032,-1.72813c-0.81955,-13.13426 -10.89342,-23.61751 -23.4474,-24.33929l0.91414,7.43318c7.96816,1.06756 14.29881,7.62714 15.43473,15.94585l-13.69547,-1.85532l-4.32748,4.5429l-0.00318,-0.00238l0.00079,-0.00079l-37.8726,0l13.34651,1.80842c0.83465,12.89182 10.59056,23.21688 22.8393,24.2288l-0.91971,-7.4777c-7.65894,-1.30921 -13.68355,-7.71379 -14.81709,-15.79085l13.09293,1.77662l4.32907,-4.54528l0,39.74302l1.68203,-13.66288c12.55398,-0.72337 22.62785,-11.20979 23.44343,-24.34883l-7.09853,0.96184c-1.13433,8.32428 -7.4626,14.88624 -15.43155,15.95937z"/>
  <g transform="matrix(1.06738 0 0 1.06738 219.501 70.1482)">
   <path stroke="#f9ad59" stroke-width="1" fill="#3c2c32" d="m-107.19873,-10.24258l-1.85,-0.1q-6.25,-0.5 -9.95,-0.5l0,0q-2.3,0 -4.7,0.15l0,0q-3,0.1 -4.25,0.1l0,0q-2.85,0 -4.5,-0.43q-1.65,-0.42 -1.65,-2.02l0,0q0,-1.55 1.73,-3.68q1.72,-2.12 6.22,-6.82l0,0q3.3,-3.3 6.05,-6.3l0,0q3.75,-4.05 7.65,-7.95l0,0l-1.1,0.1q-0.55,0.05 -2.07,0.15q-1.53,0.1 -2.93,0.1l0,0q-2.7,0 -5.8,-0.28q-3.1,-0.27 -4.75,-0.62l0,0q-3.4,-0.75 -3.4,-3.25l0,0q0,-1.45 0.85,-2.33q0.85,-0.87 2.5,-0.87l0,0q0.7,0 3.3,0.3l0,0q4.4,0.55 7.85,0.55l0,0q2,0 4.3,-0.15q2.3,-0.15 5.75,-0.45l0,0q0.95,-0.1 2,0.18q1.05,0.27 1.8,0.77l0,0q1.55,1.05 1.55,2.85l0,0q0,1.65 -2,4.07q-2,2.43 -6.2,6.63l0,0l-2.75,2.8q-3.65,3.7 -5.3,5.5l0,0q-3.1,3.25 -4.75,4.85l0,0q0.4,-0.05 1.1,-0.05l0,0q4.2,-0.3 6.55,-0.3l0,0q2.5,0 4.08,0.12q1.57,0.13 4.62,0.48l0,0q1.55,0.2 2.38,1q0.82,0.8 0.82,2.1l0,0q0,1.45 -0.92,2.37q-0.93,0.93 -2.23,0.93l0,0zm33.3,-4.9q0.95,0.15 1.47,0.7q0.53,0.55 0.53,1.95l0,0q0,1.2 -0.63,2.05q-0.62,0.85 -1.67,0.85l0,0q-2.15,0 -3.3,-0.53q-1.15,-0.52 -2.1,-1.92l0,0q-1.1,1.65 -3,2.32q-1.9,0.68 -4.45,0.68l0,0q-5.65,0 -8.6,-3.25q-2.95,-3.25 -2.95,-9.05l0,0q0,-3.8 1.55,-6.75q1.55,-2.95 4.32,-4.6q2.78,-1.65 6.38,-1.65l0,0q1.8,0 3.35,0.7q1.55,0.7 2.35,1.85l0,0l0.1,-0.65q0.1,-0.7 0.8,-1.18q0.7,-0.47 2.2,-0.47l0,0q1.6,0 2.35,0.65q0.75,0.65 0.75,1.65l0,0q0,0.35 -0.05,0.55l0,0q-0.3,1.7 -0.6,5.7l0,0q-0.15,1.85 -0.15,4.75l0,0l0,2.5q0,1.45 0.25,2.22q0.25,0.78 1.1,0.93l0,0zm-8.35,-3.45q0.05,-2.05 0.05,-6.35l0,0q0,-1.7 -1.13,-2.78q-1.12,-1.07 -2.87,-1.07l0,0q-2.25,0 -3.7,2.07q-1.45,2.08 -1.45,5.33l0,0q0,3.1 1.3,4.95q1.3,1.85 3.5,1.85l0,0q2.05,0 3.15,-1.03q1.1,-1.02 1.15,-2.97l0,0zm19.15,8.55q-1.6,0 -2.55,-0.85q-0.95,-0.85 -0.95,-2.15l0,0l-0.3,-33.1q0,-1.35 1.05,-2.2q1.05,-0.85 2.65,-0.85l0,0q1.6,0 2.57,0.82q0.98,0.83 0.98,2.18l0,0l0.25,33.1q0,1.4 -1.08,2.22q-1.07,0.83 -2.62,0.83l0,0zm15.14,-25.65q-2,0 -3.27,-1.28q-1.28,-1.27 -1.28,-3.22l0,0q0,-1.95 1.28,-3.17q1.27,-1.23 3.32,-1.23l0,0q2,0 3.25,1.23q1.25,1.22 1.25,3.12l0,0q0,1.95 -1.27,3.25q-1.28,1.3 -3.28,1.3l0,0zm-0.7,25.8q-1.6,0 -2.65,-0.8q-1.05,-0.8 -1,-2.15l0,0l0.4,-18.45q0.05,-1.35 1.05,-2.13q1,-0.77 2.6,-0.77l0,0q1.65,0 2.7,0.8q1.05,0.8 1,2.2l0,0l-0.4,18.4q-0.05,1.35 -1.07,2.13q-1.03,0.77 -2.63,0.77l0,0zm23.95,0.35q-3.7,0 -6.62,-1.55q-2.93,-1.55 -4.55,-4.35q-1.63,-2.8 -1.63,-6.45l0,0q0,-3.75 1.7,-6.83q1.7,-3.07 4.73,-4.85q3.02,-1.77 6.82,-1.77l0,0q4.05,0 7.23,1.95q3.17,1.95 4.37,5.05l0,0q0.4,0.95 0.4,1.65l0,0q0,1.65 -2.3,2.2l0,0q-0.65,0.15 -1.2,0.15l0,0q-1,0 -1.62,-0.53q-0.63,-0.52 -1.38,-1.72l0,0q-0.95,-1.45 -2.15,-2.33q-1.2,-0.87 -2.95,-0.87l0,0q-2.8,0 -4.6,2.27q-1.8,2.28 -1.8,5.73l0,0q0,3.15 1.63,4.92q1.62,1.78 4.72,1.78l0,0q2.95,0 4.38,-1.53q1.42,-1.52 1.42,-3.57l0,0q0,-0.8 0.83,-1.48q0.82,-0.67 2.22,-0.67l0,0q1.7,0 2.58,0.65q0.87,0.65 0.87,2.3l0,0q0,2.5 -1.3,4.75q-1.3,2.25 -4.22,3.67q-2.93,1.43 -7.58,1.43l0,0zm37.65,0.2q-1.15,0 -2.65,-0.15l0,0q-3.25,-0.25 -4.8,-0.25l0,0q-2.2,0 -5.6,0.2l0,0q-1.95,0.15 -3.25,0.15l0,0q-2.45,0 -3.6,-0.73q-1.15,-0.72 -1.15,-1.97l0,0q0,-1.2 1.2,-2.4l0,0l1.1,-1.15q10.25,-10.55 13.2,-13.55l0,0q-0.35,0.05 -2.4,0.22q-2.05,0.18 -3.55,0.18l0,0q-1.15,0 -2.6,-0.13q-1.45,-0.12 -2.45,-0.32l0,0q-2.9,-0.6 -2.9,-3.05l0,0q0,-1.3 0.7,-2.15q0.7,-0.85 2,-0.7l0,0q5.25,0.6 8.45,0.6l0,0q1.85,0 5.05,-0.3l0,0q2.7,-0.2 3.65,-0.2l0,0q2.2,0 3,0.6q0.8,0.6 0.8,1.8l0,0q0,1.9 -1.6,3.5l0,0l-5.15,5.1l-8.7,8.75l1.55,-0.05q3.45,-0.15 3.95,-0.15l0,0q1.5,0 3.37,0.12q1.88,0.13 2.93,0.33l0,0q2.25,0.45 2.25,2.75l0,0q0,1.25 -0.7,2.1q-0.7,0.85 -2.1,0.85l0,0z"/>
   <path stroke="#3c2c32" stroke-width="1" fill="#f9ad59" d="m54.14127,-25.79258q0,1.45 -0.87,2.35q-0.88,0.9 -2.48,0.95l0,0q-0.55,6.15 -4.02,9.55q-3.48,3.4 -9.53,3.4l0,0q-5,0 -9.02,-2.28q-4.03,-2.27 -6.3,-6.27q-2.28,-4 -2.28,-8.9l0,0q0,-4.85 2.17,-8.78q2.18,-3.92 5.93,-6.17q3.75,-2.25 8.25,-2.25l0,0q3.7,0 6.18,1.42q2.47,1.43 3.52,3.23l0,0l0,-1.15q0,-1 0.83,-1.7q0.82,-0.7 2.37,-0.7l0,0q1.6,0 2.43,0.73q0.82,0.72 0.87,1.82l0,0q0.15,4.15 -0.7,5.8l0,0q-0.45,0.8 -1.33,1.2q-0.87,0.4 -1.97,0.4l0,0q-1,0 -1.75,-0.38q-0.75,-0.37 -1.95,-1.42l0,0q-1.35,-1.2 -2.8,-1.95q-1.45,-0.75 -3.95,-0.75l0,0q-3.1,0 -5.57,1.32q-2.48,1.33 -3.88,3.75q-1.4,2.43 -1.4,5.58l0,0q0,3.15 1.4,5.65q1.4,2.5 3.75,3.9q2.35,1.4 5,1.4l0,0q2.8,0 4.55,-1.63q1.75,-1.62 2.2,-4.87l0,0l-5.05,-0.1q-1.75,-0.05 -2.57,-0.9q-0.83,-0.85 -0.83,-2.25l0,0q0,-1.55 0.95,-2.5q0.95,-0.95 2.6,-0.9l0,0l11.4,0.25q1.9,0.05 2.87,0.85q0.98,0.8 0.98,2.3l0,0zm29.55,-8.95q4.8,0 6.97,3.37q2.18,3.38 2.18,9.28l0,0q0,2.9 -0.05,4.3l0,0l-0.05,5.55q0,1.2 -0.9,1.92q-0.9,0.73 -2.4,0.73l0,0q-1.55,0 -2.58,-0.75q-1.02,-0.75 -1.02,-2.1l0,0l0,-9.65q0,-4 -0.68,-5.7q-0.67,-1.7 -2.17,-1.7l0,0q-1.1,0 -1.93,1.77q-0.82,1.78 -0.87,5.23l0,0l0,3.4l0,6.65q0,2.75 -3.35,2.75l0,0q-1.75,0 -2.7,-0.73q-0.95,-0.72 -0.95,-2.07l0,0l0.05,-10q0,-3.5 -0.73,-5.13q-0.72,-1.62 -2.22,-1.62l0,0q-0.95,0 -1.93,1.33q-0.97,1.32 -1.52,3.87l0,0q-0.35,1.45 -0.35,3.75l0,0l0.05,4.55l0,3.75q0,1.1 -1,1.72q-1,0.63 -2.4,0.63l0,0q-1.4,0 -2.4,-0.63q-1,-0.62 -1,-1.77l0,0l0,-15.2q0,-1.15 -0.15,-1.7q-0.15,-0.55 -0.65,-1.05l0,0q-0.05,-0.05 -0.3,-0.3q-0.25,-0.25 -0.38,-0.5q-0.12,-0.25 -0.12,-0.55l0,0q0,-1.3 0.97,-2.13q0.98,-0.82 2.18,-0.82l0,0q1,0 2.2,1.5l0,0q0.85,1.1 0.85,2.2l0,0l0,0.3q0.8,-1.85 2.37,-3.08q1.58,-1.22 3.98,-1.22l0,0q2.4,0 3.77,0.97q1.38,0.98 2.13,2.73l0,0q1.1,-1.85 2.92,-2.85q1.83,-1 4.18,-1l0,0zm20.1,-0.95q-2,0 -3.28,-1.28q-1.27,-1.27 -1.27,-3.22l0,0q0,-1.95 1.27,-3.17q1.28,-1.23 3.33,-1.23l0,0q2,0 3.25,1.23q1.25,1.22 1.25,3.12l0,0q0,1.95 -1.28,3.25q-1.27,1.3 -3.27,1.3l0,0zm-0.7,25.8q-1.6,0 -2.65,-0.8q-1.05,-0.8 -1,-2.15l0,0l0.4,-18.45q0.05,-1.35 1.05,-2.13q1,-0.77 2.6,-0.77l0,0q1.65,0 2.7,0.8q1.05,0.8 1,2.2l0,0l-0.4,18.4q-0.05,1.35 -1.08,2.13q-1.02,0.77 -2.62,0.77l0,0zm26.09,-25.25q4.4,0 6.83,3.07q2.42,3.08 2.42,9.08l0,0l-0.05,11.3q0,1.05 -1.02,1.6q-1.03,0.55 -2.53,0.55l0,0q-1.45,0 -2.57,-0.5q-1.13,-0.5 -1.13,-1.4l0,0l0.05,-11.6q0,-3.65 -0.8,-5.1q-0.8,-1.45 -2.5,-1.45l0,0q-1.45,0 -2.3,1.3q-0.85,1.3 -1.45,5.05l0,0q-0.35,2.1 -0.35,4.65l0,0l0.05,6.45q0,1.3 -0.97,1.97q-0.98,0.68 -2.63,0.68l0,0q-1.7,0 -2.67,-0.7q-0.98,-0.7 -0.98,-1.95l0,0q0,-10.4 -0.3,-16.2l0,0q-0.05,-0.6 -0.27,-1.13q-0.23,-0.52 -0.53,-0.97q-0.3,-0.45 -0.45,-0.7l0,0q-0.3,-0.55 -0.3,-1.1l0,0q0,-1.05 1.23,-1.98q1.22,-0.92 2.37,-0.92l0,0q0.55,0 1.08,0.35q0.52,0.35 1.17,1.15l0,0q0.55,0.7 0.8,1.25q0.25,0.55 0.25,1.25l0,0l0,0.45q0.9,-1.9 2.73,-3.18q1.82,-1.27 4.82,-1.27l0,0zm27.65,26.05q-4.55,0 -7.67,-1.7q-3.13,-1.7 -4.68,-4.7q-1.55,-3 -1.55,-6.8l0,0q0,-3.8 1.78,-6.78q1.77,-2.97 4.85,-4.62q3.07,-1.65 6.87,-1.65l0,0q3.4,0 6.23,1.35q2.82,1.35 4.45,3.87q1.62,2.53 1.62,5.93l0,0q0,2.15 -0.77,3.07q-0.78,0.93 -2.63,0.93l0,0l-16.15,0q0,1.2 0.85,2.42q0.85,1.23 2.55,2.08q1.7,0.85 4.05,0.85l0,0q2.1,0 3.3,-0.63q1.2,-0.62 2.5,-1.87l0,0q0.95,-0.85 1.95,-0.85l0,0q1.15,0 2.15,0.87q1,0.88 1,1.98l0,0q0,0.9 -0.6,1.75l0,0q-1.05,1.65 -3.55,3.07q-2.5,1.43 -6.55,1.43l0,0zm-7.65,-15.6l12.95,0q0.45,0 0.58,-0.15q0.12,-0.15 0.12,-0.55l0,0q0,-1.95 -1.87,-3.25q-1.88,-1.3 -4.63,-1.3l0,0q-2.2,0 -3.82,0.85q-1.63,0.85 -2.48,2.07q-0.85,1.23 -0.85,2.33l0,0z"/>
  </g>
 </g>
</svg>
